<svg width="21" height="21" fill="none" xmlns="http://www.w3.org/2000/svg"><path d="M20.021 3.318L17.307.607a2.06 2.06 0 00-2.923 0l-2.92 2.92a2.06 2.06 0 000 2.923l2.135 2.136a10.037 10.037 0 01-2.052 2.959 10.075 10.075 0 01-2.959 2.06l-2.135-2.137a2.06 2.06 0 00-1.46-.606c-.554 0-1.073.216-1.463.606L.607 14.386A2.061 2.061 0 000 15.85c0 .553.217 1.073.607 1.463l2.709 2.71A3.35 3.35 0 005.678 21c.186 0 .365-.015.54-.046 3.436-.566 6.843-2.393 9.593-5.14 2.747-2.745 4.572-6.15 5.145-9.596a3.354 3.354 0 00-.935-2.9z" fill="#fff"/></svg>