<svg width="21" height="21" viewBox="0 0 21 21" fill="none" xmlns="http://www.w3.org/2000/svg">
<path d="M20.0211 3.3182L17.3069 0.606553C17.1154 0.41425 16.8879 0.261669 16.6373 0.157578C16.3867 0.0534862 16.118 -6.50378e-05 15.8466 5.92779e-08C15.2936 5.92779e-08 14.7737 0.216626 14.3838 0.606553L11.4632 3.52718C11.2709 3.71865 11.1183 3.94622 11.0142 4.19683C10.9101 4.44743 10.8566 4.71614 10.8566 4.9875C10.8566 5.54053 11.0733 6.06044 11.4632 6.45036L13.5988 8.58604C13.0989 9.68793 12.4039 10.6903 11.5473 11.5449C10.6928 12.4036 9.69051 13.1012 8.58846 13.6041L6.45282 11.4684C6.26136 11.2761 6.03379 11.1236 5.78319 11.0195C5.53258 10.9154 5.26388 10.8618 4.99252 10.8619C4.4395 10.8619 3.9196 11.0785 3.52968 11.4684L0.606546 14.3865C0.414008 14.5783 0.261299 14.8063 0.157204 15.0574C0.0531098 15.3084 -0.000315808 15.5776 1.40432e-06 15.8494C1.40432e-06 16.4024 0.216624 16.9223 0.606546 17.3123L3.31561 20.0214C3.93744 20.6458 4.79629 21 5.67807 21C5.86411 21 6.04251 20.9847 6.21835 20.9541C9.65374 20.3883 13.0611 18.561 15.8109 15.8137C18.5582 13.0689 20.3829 9.66408 20.9564 6.21845C21.1297 5.1659 20.7805 4.08277 20.0211 3.3182Z" fill="white"/>
</svg>
